<?xml version="1.0" encoding="utf-8"?>
<!-- Generator: Adobe Illustrator 23.0.0, SVG Export Plug-In . SVG Version: 6.00 Build 0)  -->
<svg version="1.1" id="Capa_1" xmlns="http://www.w3.org/2000/svg" xmlns:xlink="http://www.w3.org/1999/xlink" x="0px" y="0px"
	 viewBox="0 0 567.86 221.35" style="enable-background:new 0 0 567.86 221.35;" xml:space="preserve">
<style type="text/css">
	.st0{fill-rule:evenodd;clip-rule:evenodd;fill:#FFFFFF;}
</style>
<g>
	<path class="st0" d="M90.33,1.79l11.81,55.53l-0.88,0.15c-0.79,0.13-1.58,0.28-2.36,0.45c-0.61,0.13-1.22,0.27-1.82,0.42
		l-0.86,0.22L84.42,3.04L90.33,1.79L90.33,1.79z M0.63,125.24l-0.63-6l56.38-5.93l0.06,0.88c0.08,1.29,0.21,2.58,0.38,3.86
		l0.18,1.26L0.63,125.24L0.63,125.24z M42.89,198.44l33.35-45.89l0.69,0.55c0.33,0.26,0.66,0.51,0.99,0.76
		c0.8,0.61,1.62,1.19,2.46,1.75l0.74,0.49l-1.06,1.46l-32.28,44.43L42.89,198.44L42.89,198.44z M6.06,147.74l53.9-17.51l-0.31-0.83
		c-0.09-0.25-0.18-0.5-0.27-0.76c-0.38-1.09-0.72-2.19-1.04-3.3l-0.24-0.85l-0.84,0.27L4.19,142.01L6.06,147.74L6.06,147.74z
		 M15.27,167.29l0.78,1.34l49.1-28.35l-0.47-0.75c-0.4-0.63-0.79-1.27-1.17-1.92c-0.34-0.58-0.66-1.17-0.98-1.76l-0.41-0.78
		l-47.21,27.25l-1.89,1.09L15.27,167.29L15.27,167.29z M63.73,208.05l-1.11,2.5l5.51,2.45l23.08-51.84l-0.82-0.33
		c-0.28-0.11-0.57-0.23-0.85-0.35c-1.03-0.43-2.04-0.88-3.04-1.37l-0.81-0.39L63.73,208.05L63.73,208.05z M30.16,186.97l32.43-29.2
		l9.72-8.75l-0.62-0.63c-0.15-0.15-0.29-0.3-0.44-0.45c-0.72-0.75-1.42-1.53-2.1-2.32c-0.11-0.13-0.22-0.26-0.33-0.39l-0.57-0.68
		l-42.14,37.95L30.16,186.97L30.16,186.97z M177.84,175.47l-29.49-26.55l0.62-0.63c0.99-1.02,1.94-2.08,2.85-3.18l0.57-0.68
		l1.35,1.22l40.91,36.84l-4.03,4.49l-0.98-0.88l-2.36-2.12l-7.08-6.37L177.84,175.47L177.84,175.47z M173,201.98l4.88-3.55
		l-33.42-46l-0.7,0.55c-1.12,0.88-2.26,1.73-3.45,2.52l-0.73,0.49L173,201.98L173,201.98z M107.37,221.35v-56.79l0.88,0.03
		c0.68,0.02,1.35,0.05,2.03,0.05c0.39,0,0.77-0.01,1.16-0.02c0.29-0.01,0.58-0.02,0.88-0.03l0.37-0.01l0.71,0.71v55.33l-0.71,0.71
		H107.37L107.37,221.35z M84.42,218.31l11.8-55.51l0.86,0.21c0.78,0.2,1.57,0.37,2.37,0.53c0.6,0.12,1.21,0.23,1.81,0.33l0.88,0.15
		l-11.81,55.54L84.42,218.31L84.42,218.31z M152.65,213.01l5.51-2.45l-22.63-50.82l-0.49-1.09l-0.79,0.39
		c-1.27,0.63-2.57,1.22-3.89,1.75l-0.82,0.33L152.65,213.01L152.65,213.01z M130.44,219.55L118.64,164l0.87-0.15
		c0.76-0.13,1.52-0.28,2.28-0.44c0.63-0.14,1.27-0.29,1.9-0.45l0.86-0.22l11.81,55.56L130.44,219.55L130.44,219.55z M58.1,96.86
		L4.2,79.34l1.86-5.74l53.9,17.51l-0.31,0.83c-0.22,0.59-0.43,1.19-0.62,1.79c-0.24,0.75-0.47,1.51-0.68,2.26L58.1,96.86L58.1,96.86
		z M107.37,56.78V0.51L107.88,0h5.02l0.51,0.51v56.28l-0.88-0.04c-0.75-0.03-1.49-0.05-2.24-0.05c-0.35,0-0.7,0.01-1.05,0.02
		c-0.33,0.01-0.66,0.02-0.98,0.03L107.37,56.78L107.37,56.78z M129.54,60.24l23.11-51.9l5.51,2.46l-23.11,51.91l-0.79-0.4
		c-0.86-0.43-1.74-0.84-2.62-1.22c-0.42-0.18-0.85-0.36-1.27-0.53L129.54,60.24L129.54,60.24z M119.48,53.38l-0.84,3.97l0.87,0.15
		c0.57,0.1,1.13,0.2,1.69,0.32c0.83,0.17,1.66,0.36,2.48,0.57l0.86,0.22l11.81-55.56l-5.9-1.25L119.48,53.38L119.48,53.38z
		 M140.99,63.41l-1.4,1.93l0.73,0.49c0.81,0.54,1.6,1.11,2.38,1.7c0.36,0.27,0.71,0.54,1.06,0.82l0.7,0.55l33.42-46L173,19.36
		L140.99,63.41L140.99,63.41z M149.74,73.87c0.71,0.76,1.4,1.55,2.07,2.35l0.58,0.69l42.26-38.05l-2.52-2.79l-1.52-1.69
		l-25.44,22.91l-16.82,15.14l0.62,0.63C149.23,73.33,149.49,73.6,149.74,73.87L149.74,73.87z M76.24,68.8l-33.34-45.9l4.88-3.55
		l33.34,45.89l-0.74,0.49c-1.18,0.79-2.33,1.63-3.45,2.51L76.24,68.8L76.24,68.8z M13.03,57.95l49.1,28.34l0.41-0.78
		c0.66-1.26,1.38-2.49,2.14-3.69l0.47-0.75l-49.1-28.35L13.03,57.95L13.03,57.95z M67,75.67l1.26,1.14l0.57-0.68
		c0.91-1.09,1.87-2.15,2.86-3.16l0.62-0.63L31.09,35.22l-0.94-0.85l-4.04,4.49L67,75.67L67,75.67z M83.82,58.43l1.38,3.1l0.48,1.09
		l0.79-0.39c1.28-0.63,2.58-1.2,3.9-1.72l0.82-0.33L68.13,8.34l-5.51,2.46L83.82,58.43L83.82,58.43z M0,102.11l56.38,5.92l0.06-0.88
		c0.05-0.83,0.12-1.66,0.21-2.49c0.06-0.58,0.14-1.17,0.22-1.75l0.13-0.88L0.63,96.1L0,102.11z"/>
	<g>
		<path class="st0" d="M250.63,69.92v4.42h-4.42h-3.02v-4.06v-0.73h-0.13c-0.93,1.73-2.31,3.11-4.15,4.15
			c-1.84,1.04-3.71,1.56-5.61,1.56c-0.73,0-1.42-0.03-2.08-0.09c-2.21-0.19-4.05-0.71-5.54-1.54c-0.84-0.47-1.57-1.05-2.18-1.73
			c-0.5-0.55-0.93-1.17-1.31-1.86c-0.82-1.5-1.34-3.34-1.57-5.5c-0.09-0.87-0.14-1.79-0.14-2.76v-4.18v-7.08v-7.08v-3.09l0.37-0.37
			h3.09h4.12v2.96v7.08v7.08v3.94c0,1.09,0.08,2.06,0.23,2.91c0.27,1.52,0.77,2.67,1.5,3.46c0.35,0.37,0.73,0.69,1.16,0.95
			c1,0.61,2.23,0.91,3.69,0.91c1.05,0,1.98-0.1,2.8-0.31c0.43-0.11,0.83-0.25,1.19-0.42c1.06-0.49,1.93-1.14,2.59-1.96
			c0.63-0.78,1.09-1.71,1.38-2.79l0.04-0.17c0.29-1.15,0.43-2.39,0.43-3.72v-3.67v-7.08v-7.08V40h2.1h5.46l0,0v1.61v7.08v7.08v7.08
			V69.92L250.63,69.92z M538,43.85c0.15-0.18,0.31-0.35,0.47-0.52c0.33-0.34,0.67-0.67,1.02-0.97c1.14-0.98,2.4-1.73,3.77-2.26
			c1.79-0.68,3.62-1.03,5.48-1.03c0.36,0,0.72,0.01,1.08,0.03c0.71,0.04,1.44,0.13,2.17,0.27c1.11,0.2,2.17,0.52,3.19,0.96
			c0.11,0.05,0.23,0.1,0.34,0.15c0.89,0.42,1.72,0.93,2.49,1.54c0.57,0.46,1.08,0.96,1.53,1.52c0.23,0.29,0.44,0.59,0.63,0.9h0.13
			v-1.67v-7.08v-7.08v-1.71h1.71h5.65l0.2,0.2v1.02v7.08v7.08v7.08v7.08v7.08v7.08v3.74h-3.74h-3.43V70.7v-1.01h-0.13
			c-1.02,1.99-2.5,3.42-4.45,4.28c-1.95,0.86-4.01,1.3-6.18,1.3c-0.29,0-0.59-0.01-0.87-0.02c-2.18-0.09-4.13-0.5-5.83-1.24
			c-0.12-0.05-0.25-0.11-0.37-0.17c-1.48-0.7-2.78-1.58-3.89-2.66c-0.4-0.39-0.78-0.8-1.13-1.23c-0.71-0.87-1.32-1.83-1.84-2.88
			c-0.45-0.91-0.84-1.89-1.15-2.94c-0.23-0.79-0.43-1.59-0.58-2.42c-0.28-1.53-0.42-3.12-0.42-4.79c0-0.66,0.02-1.31,0.06-1.93
			c0.14-2.3,0.54-4.33,1.2-6.11C535.86,46.9,536.82,45.22,538,43.85L538,43.85z M550.95,45.05c-1.72,0.01-3.18,0.38-4.38,1.09
			c-1.22,0.73-2.21,1.68-2.99,2.86c-0.77,1.18-1.33,2.5-1.66,3.99c-0.1,0.44-0.18,0.89-0.25,1.34c-0.16,1.05-0.24,2.12-0.24,3.21
			c0,1.25,0.14,2.49,0.41,3.7c0.05,0.21,0.1,0.41,0.15,0.62c0.38,1.42,0.95,2.68,1.73,3.78c0.11,0.16,0.22,0.31,0.34,0.46
			c0.72,0.9,1.59,1.63,2.62,2.2c0.5,0.28,1.03,0.49,1.61,0.66c0.81,0.23,1.69,0.34,2.65,0.34c1.68,0,3.13-0.35,4.35-1.06
			c1.22-0.71,2.22-1.64,2.99-2.79c0.78-1.15,1.35-2.44,1.73-3.88c0.37-1.44,0.56-2.91,0.56-4.42c0-0.15,0-0.31,0-0.46
			c-0.04-2.31-0.41-4.3-1.11-5.97c-0.38-0.92-0.87-1.75-1.45-2.47c-0.49-0.6-1.02-1.12-1.6-1.56c-1.47-1.09-3.25-1.63-5.34-1.63
			L550.95,45.05L550.95,45.05z M498.32,48.07c0.27-1.17,0.69-2.2,1.26-3.09c0.93-1.46,2.11-2.63,3.55-3.52
			c1-0.61,2.08-1.1,3.26-1.46c0.52-0.16,1.07-0.29,1.62-0.4h0c1.81-0.35,3.67-0.53,5.58-0.53c0.27,0,0.53,0,0.8,0.01
			c1.41,0.05,2.81,0.22,4.19,0.52c0.64,0.14,1.26,0.31,1.85,0.52c0.92,0.32,1.77,0.72,2.56,1.21c0.69,0.42,1.31,0.9,1.85,1.45
			c0.49,0.49,0.92,1.04,1.3,1.63c0.56,0.88,0.92,1.9,1.09,3.05c0.07,0.5,0.11,1.02,0.11,1.57v5.4v7.08v5.19
			c0,0.72,0.07,1.28,0.22,1.68c0.04,0.12,0.09,0.22,0.15,0.31c0.24,0.4,0.72,0.6,1.43,0.6h0.79c0.31,0,0.66-0.04,1.06-0.13v2.86
			v2.38c-0.27,0.09-0.61,0.19-1.03,0.3c-0.42,0.11-0.85,0.21-1.3,0.3c-0.26,0.05-0.53,0.1-0.79,0.13c-0.18,0.02-0.36,0.05-0.54,0.06
			c-0.44,0.04-0.82,0.07-1.13,0.07c-1.55,0-2.84-0.31-3.86-0.93c-0.16-0.1-0.3-0.2-0.44-0.32c-0.77-0.65-1.29-1.62-1.55-2.94
			c-1.51,1.46-3.36,2.53-5.55,3.19l-0.34,0.1c-2.08,0.6-4.08,0.9-6.01,0.9c-0.63,0-1.25-0.03-1.86-0.11
			c-0.89-0.1-1.75-0.28-2.59-0.53c-1-0.3-1.93-0.69-2.76-1.19c-0.34-0.2-0.67-0.43-0.99-0.66c-1.03-0.78-1.86-1.76-2.49-2.93
			c-0.03-0.06-0.07-0.13-0.1-0.19c-0.64-1.26-0.96-2.73-0.96-4.42c0-0.52,0.02-1.01,0.07-1.48c0.14-1.46,0.51-2.69,1.09-3.7
			c0.77-1.33,1.79-2.37,3.06-3.12c1.26-0.75,2.67-1.29,4.25-1.63l0.06-0.01c1.55-0.32,3.11-0.57,4.69-0.75
			c1.28-0.25,2.51-0.43,3.68-0.54l0.23-0.02c1.24-0.11,2.34-0.3,3.29-0.56c0.96-0.27,1.71-0.67,2.26-1.23
			c0.56-0.55,0.83-1.39,0.83-2.49c0-0.74-0.13-1.37-0.4-1.91c-0.09-0.17-0.18-0.33-0.3-0.48c-0.47-0.62-1.04-1.1-1.73-1.43
			c-0.69-0.33-1.45-0.55-2.29-0.67l-0.16-0.02c-0.78-0.1-1.53-0.14-2.23-0.14c-2.13,0-3.88,0.44-5.25,1.33
			c-1.37,0.89-2.15,2.26-2.33,4.12h-2.58h-4.99C498.04,49.63,498.15,48.82,498.32,48.07L498.32,48.07z M507.72,59.92
			c-0.58,0.22-1.1,0.5-1.56,0.84c-0.58,0.42-1.03,0.98-1.36,1.66c-0.1,0.21-0.19,0.44-0.26,0.68c-0.16,0.54-0.24,1.14-0.24,1.81
			c0,0.84,0.24,1.55,0.73,2.13c0.41,0.49,0.9,0.89,1.45,1.2c0.1,0.06,0.21,0.11,0.31,0.16c0.68,0.33,1.44,0.57,2.26,0.7l0,0
			c0.82,0.13,1.56,0.2,2.22,0.2c0.42,0,0.85-0.03,1.31-0.08c0.46-0.06,0.93-0.14,1.42-0.25c0.97-0.22,1.89-0.6,2.76-1.13
			c0.86-0.53,1.58-1.21,2.16-2.02c0.57-0.82,0.86-1.83,0.86-3.02v-0.77v-4.88c-0.97,0.63-2.12,1.06-3.47,1.27
			c-0.25,0.04-0.51,0.07-0.78,0.1c-1.68,0.16-3.37,0.39-5.05,0.7c-0.79,0.13-1.57,0.32-2.32,0.56
			C508,59.81,507.86,59.86,507.72,59.92L507.72,59.92z M482.78,27.99v-1.08h1.08h5.96l0.54,0.54v0.04v7.08v7.08v7.08v7.08v7.08v7.08
			v4.38h-4.38h-2.8v-4.28v-0.37h-0.13c-0.23,0.46-0.49,0.88-0.77,1.28c-0.6,0.85-1.32,1.56-2.14,2.14
			c-0.47,0.33-0.99,0.62-1.53,0.86c-1.95,0.86-4.01,1.3-6.18,1.3c-0.5,0-0.99-0.02-1.47-0.05c-2.09-0.14-3.96-0.6-5.6-1.38
			l-0.07-0.03c-1.6-0.76-2.97-1.74-4.14-2.94c-0.28-0.29-0.55-0.6-0.81-0.91c-0.8-0.99-1.49-2.09-2.05-3.31
			c-0.36-0.79-0.68-1.62-0.94-2.5c-0.29-0.96-0.51-1.94-0.67-2.96c-0.22-1.36-0.33-2.77-0.33-4.24c0-0.91,0.04-1.78,0.11-2.62
			c0.17-2.02,0.56-3.82,1.15-5.42c0.84-2.26,1.96-4.12,3.35-5.58c1.39-1.46,2.99-2.54,4.78-3.22c1.79-0.68,3.62-1.03,5.48-1.03
			c0.16,0,0.31,0,0.47,0.01c0.91,0.03,1.84,0.12,2.78,0.29c1.07,0.19,2.1,0.5,3.09,0.92l0.1,0.04c1.02,0.44,1.96,1.01,2.82,1.7
			c0.45,0.36,0.86,0.75,1.24,1.18c0.34,0.39,0.65,0.8,0.92,1.25h0.13v-2.3v-7.08V27.99L482.78,27.99z M472.77,45.08
			c-1.44,0.09-2.68,0.45-3.71,1.07c-1.22,0.73-2.22,1.68-2.99,2.86c-0.78,1.18-1.33,2.5-1.66,3.99c-0.04,0.19-0.08,0.38-0.12,0.57
			c-0.25,1.3-0.38,2.63-0.38,3.98c0,1.07,0.1,2.13,0.3,3.18c0.07,0.38,0.16,0.76,0.26,1.14c0.37,1.42,0.95,2.68,1.73,3.78l0.07,0.09
			c0.76,1.07,1.73,1.92,2.89,2.57c0.35,0.2,0.73,0.36,1.12,0.5c0.93,0.33,1.98,0.49,3.13,0.49c1.68,0,3.13-0.35,4.35-1.06
			c0.15-0.09,0.3-0.18,0.44-0.27c1.02-0.67,1.87-1.51,2.55-2.52l0.06-0.09c0.74-1.13,1.3-2.39,1.67-3.79
			c0.38-1.44,0.56-2.91,0.56-4.42c0-0.37-0.01-0.72-0.02-1.07c-0.1-2.25-0.53-4.19-1.28-5.8c-0.35-0.74-0.77-1.42-1.25-2.03
			c-0.59-0.73-1.25-1.34-1.98-1.82c-1.39-0.91-3.04-1.37-4.96-1.37C473.28,45.05,473.02,45.06,472.77,45.08L472.77,45.08z
			 M442.19,33.5v-6.59h6.59h0.84l0.14,0.14v5.95v1.08h-1.08h-6.49V33.5L442.19,33.5z M442.19,40.58V40h0.58h6.99v0.08v7.08v7.08
			v7.08v7.08v5.73l-0.21,0.21h-5.73h-1.63v-5.45v-7.08v-7.08v-7.08V40.58L442.19,40.58z M406.39,48.73
			c0.03-1.79,0.48-3.29,1.36-4.52c0.91-1.26,2.06-2.28,3.45-3.05c1.31-0.72,2.75-1.25,4.32-1.57c0.11-0.02,0.22-0.04,0.33-0.06v0
			c1.71-0.31,3.33-0.46,4.88-0.46c0.78,0,1.54,0.04,2.28,0.11c0.96,0.09,1.89,0.24,2.8,0.46c1.01,0.24,1.96,0.56,2.85,0.98
			c0.53,0.25,1.05,0.53,1.54,0.85c0.94,0.61,1.77,1.34,2.48,2.22c0.28,0.34,0.53,0.7,0.78,1.07c0.69,1.08,1.17,2.34,1.46,3.77
			c0.07,0.36,0.13,0.73,0.17,1.11h-1.28h-6.62c-0.02-0.13-0.05-0.25-0.08-0.37c-0.39-1.61-1.2-2.7-2.41-3.28
			c-0.32-0.15-0.65-0.28-0.99-0.4c-1.06-0.35-2.22-0.53-3.49-0.53c-0.53,0-1.16,0.04-1.89,0.13c-0.58,0.07-1.13,0.19-1.65,0.36
			c-0.14,0.04-0.28,0.09-0.41,0.14c-0.64,0.24-1.18,0.6-1.63,1.06c-0.37,0.39-0.59,0.88-0.65,1.48c-0.01,0.11-0.02,0.23-0.02,0.34
			c0,0.93,0.32,1.68,0.97,2.26c0.58,0.52,1.32,0.95,2.22,1.31c0.1,0.04,0.21,0.08,0.32,0.12c1.04,0.38,2.23,0.7,3.56,0.96
			c0.58,0.11,1.17,0.23,1.76,0.36c0.78,0.16,1.57,0.33,2.37,0.5c1.12,0.25,2.22,0.55,3.31,0.89c0.25,0.08,0.5,0.16,0.75,0.24
			c1.33,0.44,2.52,1.04,3.57,1.79c0.14,0.1,0.28,0.21,0.41,0.32c0.86,0.7,1.56,1.55,2.12,2.54c0.29,0.53,0.52,1.1,0.68,1.74
			c0.19,0.76,0.29,1.6,0.29,2.51c0,2.04-0.46,3.77-1.4,5.18c-0.93,1.42-2.14,2.57-3.63,3.45c-1.49,0.88-3.14,1.53-4.96,1.93
			c-1.32,0.29-2.63,0.47-3.93,0.55c-0.49,0.03-0.98,0.04-1.46,0.04c-1.83,0-3.55-0.17-5.14-0.52c-0.3-0.06-0.59-0.13-0.88-0.21
			c-1.57-0.42-2.97-1.01-4.18-1.8c-0.21-0.14-0.41-0.28-0.61-0.42c-1.18-0.87-2.14-1.92-2.88-3.16c-0.11-0.18-0.21-0.37-0.31-0.56
			c-0.74-1.41-1.14-3.07-1.22-4.98c0-0.1-0.01-0.2-0.01-0.3h0.31h7.08h0.19c0.21,2.13,1,3.64,2.35,4.54
			c0.06,0.04,0.11,0.07,0.17,0.11c1.46,0.89,3.21,1.33,5.25,1.33l0.22,0c0.65-0.01,1.39-0.06,2.2-0.17
			c0.91-0.11,1.76-0.32,2.56-0.63c0.8-0.31,1.45-0.77,1.96-1.36c0.51-0.6,0.74-1.38,0.7-2.36c-0.04-0.83-0.3-1.53-0.79-2.11
			c-0.08-0.1-0.17-0.19-0.27-0.28c-0.66-0.62-1.52-1.12-2.56-1.49c-0.59-0.21-1.22-0.41-1.89-0.58c-0.53-0.14-1.08-0.26-1.66-0.38
			c-1.33-0.27-2.68-0.55-4.05-0.86l-0.1-0.02c-1.38-0.31-2.71-0.68-3.98-1.11c-0.49-0.17-0.96-0.36-1.42-0.57
			c-0.75-0.35-1.45-0.76-2.1-1.23c-0.73-0.52-1.35-1.15-1.87-1.88c-0.23-0.32-0.43-0.65-0.62-1.01c-0.62-1.17-0.93-2.62-0.93-4.35
			L406.39,48.73L406.39,48.73z M384.14,42.64V40h2.64h4.47v2.61v4.03h0.13c0.22-0.93,0.65-1.84,1.29-2.72
			c0.64-0.88,1.42-1.69,2.32-2.42c0.91-0.73,1.92-1.31,3.02-1.76h0c1.11-0.44,2.24-0.66,3.39-0.66l0.45,0
			c0.65,0.01,1.1,0.03,1.37,0.06c0.33,0.05,0.68,0.09,1.03,0.13v4.47v2.83c-0.53-0.09-1.08-0.16-1.63-0.23
			c-0.3-0.04-0.6-0.06-0.89-0.08c-0.25-0.01-0.49-0.02-0.74-0.02c-1.28,0-2.49,0.25-3.62,0.76c-1.13,0.51-2.12,1.26-2.96,2.26
			c-0.84,1-1.5,2.22-1.99,3.68c-0.33,0.99-0.55,2.08-0.65,3.27c-0.05,0.57-0.08,1.16-0.08,1.78v5.38v7.08v3.89h-3.89h-3.34
			l-0.35-0.35v-3.04v-7.08V56.8v-7.08V42.64L384.14,42.64z M346.19,51.98c0.15-0.58,0.32-1.15,0.52-1.72
			c0.77-2.19,1.88-4.12,3.32-5.78c1.44-1.66,3.18-2.98,5.21-3.95l0,0c1.1-0.53,2.29-0.91,3.55-1.15c1.06-0.2,2.18-0.31,3.36-0.31
			c1.28,0,2.49,0.13,3.64,0.38c1.29,0.28,2.5,0.72,3.63,1.31c0.47,0.25,0.92,0.51,1.35,0.79c1.43,0.93,2.67,2.05,3.73,3.35
			c0.09,0.11,0.18,0.23,0.27,0.34c0.95,1.25,1.73,2.63,2.34,4.13c0.29,0.73,0.55,1.49,0.76,2.28c0.3,1.13,0.5,2.28,0.59,3.45
			c0.1,1.32,0.07,2.66-0.09,4.02h-3.93h-7.08h-7.08h-7.08h-0.08v0.08c0.01,1.3,0.2,2.56,0.57,3.78c0.21,0.69,0.48,1.34,0.8,1.93
			c0.26,0.47,0.55,0.91,0.89,1.32c0.72,0.89,1.63,1.61,2.71,2.16l0.14,0.07c1.15,0.55,2.52,0.83,4.12,0.83
			c0.74,0,1.43-0.05,2.07-0.16c1.28-0.21,2.37-0.63,3.27-1.27c1.35-0.95,2.36-2.38,3.02-4.29h6.34h0.84
			c-0.4,1.86-1.09,3.52-2.06,4.98c-0.97,1.46-2.15,2.69-3.52,3.69c-1.37,1-2.91,1.75-4.62,2.26c-0.67,0.2-1.36,0.36-2.05,0.48
			c-1.07,0.19-2.17,0.28-3.29,0.28c-1.32,0-2.57-0.11-3.74-0.32c-1.22-0.22-2.37-0.56-3.43-1.01c-0.62-0.26-1.2-0.55-1.76-0.88
			c-1.33-0.77-2.51-1.72-3.52-2.84c-0.11-0.13-0.22-0.25-0.33-0.38c-1.09-1.3-1.96-2.78-2.61-4.47c-0.11-0.28-0.21-0.57-0.31-0.86
			c-0.51-1.53-0.84-3.17-0.99-4.91c-0.07-0.78-0.1-1.57-0.1-2.39C345.55,55.4,345.76,53.66,346.19,51.98L346.19,51.98z
			 M359.96,45.29c-0.5,0.11-0.98,0.27-1.43,0.46c-1.09,0.46-2.02,1.11-2.79,1.93c-0.77,0.82-1.39,1.78-1.86,2.89
			c-0.17,0.4-0.31,0.8-0.42,1.22c-0.2,0.75-0.32,1.54-0.35,2.37h5.06h7.08h5.53c-0.09-1.2-0.34-2.35-0.76-3.45
			c-0.12-0.32-0.25-0.62-0.4-0.92c-0.36-0.73-0.8-1.39-1.33-1.97c-0.59-0.67-1.29-1.23-2.09-1.69c-0.18-0.11-0.37-0.21-0.57-0.3
			c-1.04-0.51-2.2-0.76-3.49-0.76C361.38,45.05,360.65,45.13,359.96,45.29L359.96,45.29z M310.9,44.28L309.35,40h5.84h2.4l1.16,3.52
			l1.76,5.32l1.76,5.32l1.76,5.32l1.76,5.32l0.52,1.56h0.13l1.03-3.24l3.29-10.37l3.29-10.37l0.76-2.39h1.63h5.76l0.33,0.33
			l-0.37,1.03l-3.94,11.02l-3.94,11.02l-3.91,10.94h-7.03h-1.48l-1.49-4.11l-1.89-5.19l-1.89-5.19l-1.89-5.19l-1.89-5.19
			L310.9,44.28L310.9,44.28z M296.93,30.58v-3.42l0.23-0.23h3.43h3.91v3.16v4.01h-4.01h-3.56V30.58L296.93,30.58z M296.93,44.73V40
			h4.73h2.84v4.23v7.08v7.08v7.08v7.08v1.79h-1.79h-5.56l-0.22-0.22v-1.08v-7.08v-7.08v-7.08V44.73L296.93,44.73z M258.6,40.94V40
			h0.94h6.23v0.84v4.21l0.13,0.13c1.15-1.9,2.66-3.4,4.52-4.48c1.25-0.73,2.6-1.21,4.03-1.45c0.69-0.12,1.41-0.17,2.15-0.17
			c1.67,0,3.18,0.19,4.53,0.57c1.7,0.48,3.16,1.26,4.37,2.35c0.06,0.06,0.12,0.11,0.19,0.17c1.23,1.17,2.09,2.67,2.58,4.5
			c0.33,1.22,0.49,2.59,0.49,4.1v2.49v7.08v7.08v6.93h-6.93h-0.64V67.9v-7.08v-7.08v-0.99c-0.07-2.11-0.44-3.78-1.1-4.98
			c-0.18-0.33-0.39-0.63-0.62-0.9c-0.87-1-2.13-1.58-3.8-1.76c-0.37-0.04-0.77-0.06-1.19-0.06c-1.28,0-2.43,0.23-3.46,0.7
			c-1.02,0.46-1.88,1.11-2.59,1.93c-0.71,0.82-1.26,1.78-1.66,2.89c-0.4,1.11-0.6,2.28-0.6,3.52v0.52v7.08v7.08v5.58h-5.58h-1.45
			l-0.54-0.54v-4.55v-7.08V55.1v-7.08V40.94z"/>
		<path class="st0" d="M250.31,125.99c-0.9,2.31-2.19,4.2-3.87,5.68c-1.26,1.12-2.72,1.97-4.37,2.56c-1.85,0.66-3.95,0.99-6.29,0.99
			c-0.59,0-1.16-0.02-1.72-0.06c-2.01-0.15-3.81-0.59-5.42-1.3l-0.25-0.11c-1.61-0.74-3.02-1.69-4.23-2.85
			c-0.26-0.24-0.5-0.5-0.74-0.76c-0.89-0.99-1.65-2.09-2.26-3.31c-0.37-0.72-0.69-1.49-0.96-2.3c-0.33-0.98-0.59-2-0.77-3.05
			c-0.22-1.28-0.33-2.6-0.33-3.99c0-1,0.05-1.97,0.16-2.92c0.17-1.5,0.47-2.93,0.9-4.32c0.71-2.26,1.77-4.22,3.19-5.88
			c1.42-1.66,3.18-2.97,5.28-3.92c1.78-0.81,3.83-1.27,6.14-1.4c0.41-0.02,0.84-0.03,1.27-0.03c1.82,0,3.55,0.21,5.21,0.64
			c0.16,0.04,0.32,0.08,0.47,0.13c1.64,0.47,3.12,1.15,4.43,2.04c0.12,0.08,0.24,0.16,0.35,0.25c1.24,0.91,2.28,2.03,3.12,3.36
			c0.1,0.16,0.2,0.33,0.3,0.49c0.78,1.37,1.29,2.96,1.52,4.77c0.03,0.24,0.06,0.49,0.08,0.74h-0.82h-6.75
			c-0.01-0.09-0.03-0.19-0.04-0.28c-0.34-1.99-1.18-3.5-2.51-4.53l-0.02-0.02c-1.39-1.08-3.15-1.61-5.26-1.61l-0.2,0
			c-0.92,0.02-1.89,0.19-2.92,0.5c-1.11,0.33-2.12,0.95-3.05,1.86c-0.93,0.91-1.7,2.17-2.33,3.79c-0.32,0.82-0.55,1.78-0.71,2.86
			c-0.15,1.04-0.22,2.2-0.22,3.48c0,1.16,0.11,2.33,0.34,3.49c0.05,0.26,0.1,0.51,0.16,0.77c0.33,1.42,0.86,2.68,1.59,3.79
			c0.1,0.15,0.21,0.3,0.32,0.45c0.68,0.9,1.51,1.65,2.51,2.24c0.5,0.3,1.04,0.53,1.63,0.7c0.77,0.22,1.62,0.33,2.55,0.33
			c2.21,0,4.04-0.69,5.48-2.06c1.44-1.37,2.33-3.3,2.69-5.78h3.86h3.71C251.26,123.09,250.85,124.61,250.31,125.99L250.31,125.99z
			 M490.35,133.83v-4.65H495h7.08h7.08h7.08h6.23l0.3,0.3v0.25v5.17l-0.36,0.35h-5.17h-7.08h-7.08h-7.08h-5.66V133.83L490.35,133.83
			z M452.16,108.5c0.66-1.54,1.51-2.91,2.54-4.13c1.42-1.66,3.17-2.97,5.28-3.92c0.13-0.06,0.26-0.12,0.39-0.17
			c2.02-0.84,4.35-1.26,7.01-1.26c0.43,0,0.86,0.01,1.29,0.04c1.53,0.09,2.99,0.33,4.39,0.73c0.51,0.14,0.99,0.31,1.47,0.49
			c1.21,0.47,2.32,1.07,3.32,1.8c0.38,0.27,0.74,0.57,1.08,0.88c0.92,0.85,1.7,1.84,2.34,2.97c0.22,0.38,0.41,0.77,0.58,1.18
			c0.54,1.28,0.88,2.72,1.01,4.33h-5.34h-2.23c-0.2-1.4-0.64-2.58-1.32-3.52c-0.35-0.49-0.76-0.92-1.24-1.29
			c-0.89-0.7-1.94-1.17-3.13-1.42c-0.67-0.14-1.39-0.21-2.15-0.21c-0.97,0-2.01,0.17-3.12,0.5c-1.11,0.33-2.13,0.95-3.06,1.86
			c-0.93,0.91-1.7,2.17-2.32,3.79c-0.56,1.47-0.87,3.35-0.92,5.63c-0.01,0.23-0.01,0.47-0.01,0.71c0,1.42,0.16,2.84,0.5,4.25
			c0.1,0.44,0.22,0.86,0.36,1.26c0.31,0.91,0.72,1.75,1.23,2.52c0.44,0.67,0.96,1.26,1.55,1.77c0.39,0.34,0.81,0.64,1.27,0.92
			c1.08,0.64,2.36,0.98,3.87,1.03c0.11,0,0.21,0,0.32,0c2.21,0,4.04-0.69,5.48-2.06c1.44-1.37,2.33-3.3,2.69-5.78h6.42h1.15
			c-0.71,4.47-2.4,7.89-5.08,10.26c-2.52,2.23-5.81,3.41-9.87,3.54c-0.26,0.01-0.52,0.01-0.79,0.01c-2.03,0-3.87-0.26-5.54-0.77
			c-0.56-0.17-1.09-0.37-1.61-0.6c-1.12-0.5-2.15-1.09-3.09-1.79c-0.77-0.58-1.48-1.22-2.12-1.93c-0.48-0.53-0.92-1.1-1.32-1.7
			c-0.78-1.17-1.42-2.48-1.9-3.91c-0.11-0.32-0.21-0.64-0.3-0.97c-0.53-1.89-0.8-3.92-0.8-6.07l0-0.2c0.02-2.49,0.37-4.84,1.06-7.03
			C451.71,109.65,451.92,109.07,452.16,108.5L452.16,108.5z M414.55,110.62c0.04-0.13,0.09-0.26,0.13-0.39
			c0.78-2.19,1.88-4.12,3.32-5.78c1.44-1.66,3.17-2.98,5.21-3.95l0,0c0.74-0.35,1.51-0.64,2.32-0.87c1.42-0.4,2.95-0.59,4.59-0.59
			c0.99,0,1.94,0.08,2.86,0.23c1.58,0.26,3.05,0.75,4.42,1.47c0.26,0.14,0.52,0.28,0.77,0.43c1.48,0.88,2.77,1.94,3.88,3.2
			c0.24,0.28,0.48,0.56,0.7,0.86c0.81,1.06,1.5,2.22,2.05,3.47c0.42,0.93,0.76,1.91,1.04,2.94c0.23,0.86,0.39,1.72,0.5,2.6
			c0.2,1.59,0.2,3.22,0,4.88h-4.87h-7.08h-7.08h-6.21c0,1.33,0.19,2.61,0.57,3.85c0.14,0.46,0.3,0.89,0.49,1.3
			c0.33,0.71,0.73,1.36,1.2,1.95c0.58,0.72,1.29,1.33,2.11,1.82c0.24,0.14,0.49,0.28,0.75,0.4c1.15,0.55,2.53,0.83,4.12,0.83
			c0.35,0,0.68-0.01,1.01-0.04c1.75-0.13,3.2-0.59,4.34-1.39c1.35-0.95,2.36-2.38,3.02-4.28h5.4h1.78c-0.4,1.86-1.09,3.52-2.06,4.98
			c-0.97,1.46-2.15,2.69-3.52,3.68c-1.37,1-2.91,1.75-4.62,2.26c-1.02,0.3-2.07,0.52-3.15,0.64c-0.72,0.08-1.45,0.12-2.2,0.12
			c-1.62,0-3.13-0.16-4.53-0.48c-0.93-0.21-1.82-0.5-2.65-0.85c-0.83-0.35-1.62-0.77-2.35-1.23c-1.09-0.7-2.07-1.53-2.94-2.49
			c-0.26-0.29-0.51-0.59-0.75-0.9c-1.04-1.35-1.85-2.9-2.44-4.64l-0.06-0.17c-0.59-1.78-0.94-3.71-1.06-5.79
			c-0.03-0.5-0.04-1-0.04-1.52C413.53,114.87,413.87,112.69,414.55,110.62L414.55,110.62z M426.56,105.68l-0.05,0.02
			c-1.08,0.46-2.01,1.11-2.79,1.93c-0.72,0.76-1.3,1.64-1.75,2.65c-0.04,0.08-0.07,0.16-0.11,0.24c-0.46,1.1-0.72,2.3-0.77,3.59
			h4.12h7.08h6.47c-0.09-1.2-0.34-2.35-0.76-3.45c-0.21-0.54-0.45-1.05-0.73-1.52c-0.29-0.49-0.62-0.95-1-1.37
			c-0.73-0.82-1.62-1.48-2.66-1.99l-0.05-0.02c-1.03-0.5-2.17-0.75-3.44-0.75C428.83,105.01,427.64,105.23,426.56,105.68
			L426.56,105.68z M395.32,94.47v-4.81h4.81h2.76v4.31v5.98h1.1h5.74v1.33v4.31h-4.31h-2.53v2.53v7.08v7.08v1.65
			c0,0.8,0.03,1.49,0.1,2.06c0.07,0.58,0.22,1.06,0.47,1.46c0.17,0.27,0.39,0.5,0.67,0.68c0.13,0.08,0.27,0.16,0.43,0.22
			c0.49,0.2,1.15,0.3,1.99,0.3c0.53,0,1.06-0.01,1.6-0.03c0.53-0.02,1.06-0.1,1.59-0.23v1.21v4.63c-0.84,0.09-1.66,0.18-2.46,0.27
			c-0.8,0.09-1.62,0.13-2.46,0.13h-0.11c-1.94-0.01-3.51-0.2-4.7-0.57c-0.47-0.15-0.9-0.32-1.3-0.52c-0.62-0.31-1.14-0.7-1.56-1.14
			c-0.68-0.73-1.15-1.65-1.39-2.76l-0.04-0.18c-0.22-1.06-0.35-2.26-0.39-3.6v-3.08v-7.08v-7.08v-3.02h-4.05h-1.66v-5.42v-0.23h0.23
			h5.48V94.47L395.32,94.47z M353.99,108.05c0.7-1.46,1.58-2.76,2.64-3.9c1.3-1.4,2.85-2.53,4.66-3.4c0.26-0.12,0.52-0.24,0.79-0.36
			l0,0c2.15-0.91,4.59-1.36,7.34-1.36c0.22,0,0.44,0,0.66,0.01c2.2,0.06,4.19,0.42,5.99,1.08c0.23,0.08,0.46,0.18,0.68,0.27
			c1.43,0.6,2.71,1.36,3.85,2.27c0.57,0.46,1.1,0.95,1.6,1.48c0.65,0.69,1.23,1.45,1.74,2.26c0.66,1.05,1.21,2.2,1.65,3.45
			c0.17,0.5,0.33,1,0.46,1.52c0.47,1.79,0.7,3.7,0.7,5.72c0,0.22,0,0.44-0.01,0.66c-0.06,2.4-0.44,4.62-1.15,6.64
			c-0.37,1.04-0.81,2.01-1.33,2.91c-0.59,1.02-1.28,1.95-2.06,2.8c-1.02,1.1-2.21,2.04-3.55,2.81c-0.6,0.35-1.24,0.66-1.9,0.94
			c-2.15,0.91-4.59,1.36-7.34,1.36l-0.14,0c-2.24-0.01-4.28-0.33-6.12-0.95c-0.37-0.12-0.72-0.26-1.07-0.41
			c-1.31-0.55-2.49-1.23-3.56-2.04c-0.68-0.52-1.31-1.09-1.89-1.71c-0.56-0.6-1.07-1.25-1.53-1.94c-0.75-1.14-1.37-2.39-1.85-3.77
			c-0.13-0.36-0.24-0.73-0.35-1.1c-0.54-1.91-0.81-3.98-0.81-6.2l0-0.06c0.01-2.59,0.39-4.98,1.16-7.18
			C353.47,109.23,353.72,108.63,353.99,108.05L353.99,108.05z M371.07,105.13c-0.52-0.08-1.07-0.12-1.64-0.12
			c-1.68,0-3.14,0.36-4.38,1.07c-1.24,0.71-2.26,1.63-3.05,2.75c-0.8,1.13-1.39,2.43-1.76,3.89c-0.33,1.27-0.51,2.54-0.56,3.82
			c-0.01,0.19-0.01,0.38-0.01,0.57c0,1.51,0.19,2.98,0.57,4.42c0.1,0.4,0.23,0.79,0.36,1.17c0.36,0.98,0.82,1.88,1.4,2.71
			c0.41,0.59,0.87,1.11,1.39,1.58c0.5,0.46,1.06,0.86,1.67,1.2c0.94,0.54,2.01,0.87,3.2,1c0.38,0.04,0.77,0.06,1.18,0.06
			c1.68,0,3.14-0.35,4.38-1.06c1.24-0.71,2.26-1.64,3.06-2.79c0.8-1.15,1.38-2.45,1.76-3.89c0.28-1.06,0.45-2.13,0.52-3.23
			c0.03-0.39,0.04-0.79,0.04-1.19c0-1.46-0.19-2.92-0.56-4.38c-0.07-0.26-0.14-0.51-0.22-0.76c-0.37-1.15-0.88-2.2-1.54-3.13
			c-0.33-0.47-0.7-0.9-1.11-1.3c-0.57-0.56-1.22-1.04-1.94-1.45C372.99,105.6,372.07,105.29,371.07,105.13L371.07,105.13z
			 M335.01,98.45V97.1c0-2.17,0.27-3.93,0.8-5.28c0.53-1.35,1.24-2.39,2.13-3.12c0.89-0.73,1.89-1.22,3.02-1.46
			c1.13-0.24,2.32-0.36,3.56-0.36c0.74,0,1.42,0.01,2.03,0.04c1.41,0.06,2.51,0.2,3.28,0.42v3.38v2.53
			c-0.49-0.13-1.01-0.23-1.56-0.3c-0.19-0.02-0.4-0.04-0.62-0.06c-0.41-0.03-0.85-0.04-1.34-0.04c-1.02,0-1.89,0.24-2.62,0.73
			c-0.73,0.49-1.1,1.44-1.1,2.86v1.52v2h5.08h1.37v5.65h-6.44v6.51v7.08v7.08v7.08v0.96h-0.96h-6.62v-0.46v-7.08v-7.08v-7.08v-7
			h-0.07h-5.57v-1.51v-4.14h4.14h1.5V98.45L335.01,98.45z M294.63,102.93v-2.97h2.97h4.2v2.88v2.17l0.13,0.13
			c1.15-1.9,2.66-3.4,4.52-4.48c1.86-1.08,3.92-1.63,6.18-1.63l0.06,0c2.29,0.01,4.28,0.37,5.97,1.1c1.07,0.46,2.03,1.07,2.87,1.82
			c0.42,0.38,0.8,0.8,1.14,1.25c1.03,1.37,1.68,3.08,1.96,5.12c0.1,0.75,0.15,1.56,0.15,2.4v4.52v7.08v7.08v4.42l-0.48,0.48h-4.42
			h-2.67v-4.41v-7.08v-7.08v-3.02c-0.05-1.37-0.22-2.55-0.51-3.54c-0.29-0.96-0.69-1.74-1.21-2.34c-0.55-0.63-1.26-1.1-2.13-1.4
			c-0.81-0.28-1.77-0.43-2.86-0.43c-1.28,0-2.43,0.23-3.45,0.7c-1.02,0.46-1.88,1.11-2.59,1.93c-0.71,0.82-1.26,1.78-1.66,2.89
			c-0.4,1.1-0.6,2.28-0.6,3.52v2.55v7.08v7.08v3.55h-3.55h-4.02v-3.06v-7.08v-7.08v-7.08V102.93L294.63,102.93z M256.31,113.69
			c0.19-1.19,0.49-2.35,0.89-3.47c0.78-2.19,1.88-4.12,3.32-5.78c1.44-1.66,3.18-2.98,5.21-3.95l0,0c1.56-0.75,3.29-1.21,5.16-1.38
			c0.57-0.05,1.15-0.08,1.74-0.08c1.69,0,3.27,0.22,4.75,0.66c0.88,0.27,1.72,0.61,2.52,1.03c0.77,0.4,1.49,0.86,2.17,1.35
			c1.21,0.89,2.27,1.94,3.18,3.13c0.11,0.15,0.22,0.29,0.33,0.44c1.01,1.41,1.8,2.98,2.38,4.7c0.14,0.41,0.27,0.84,0.38,1.27
			c0.41,1.56,0.63,3.16,0.65,4.78c0.01,0.89-0.04,1.79-0.15,2.69h-2.55h-7.08h-7.08h-7.08h-1.46c0,0.47,0.02,0.93,0.07,1.39
			c0.09,0.84,0.25,1.66,0.49,2.46c0.31,1.04,0.76,1.96,1.34,2.78c0.11,0.16,0.23,0.32,0.35,0.47c0.75,0.93,1.7,1.67,2.86,2.23
			c0.27,0.13,0.54,0.24,0.83,0.34c0.96,0.33,2.06,0.49,3.29,0.49c1.54,0,2.87-0.23,3.99-0.69c0.49-0.2,0.94-0.45,1.36-0.74
			c1.08-0.76,1.94-1.83,2.58-3.2c0.16-0.34,0.31-0.7,0.44-1.08h0.64h6.53c-0.05,0.24-0.11,0.48-0.17,0.72
			c-0.41,1.57-1.04,2.99-1.89,4.26c-0.98,1.46-2.15,2.69-3.52,3.68c-1.37,1-2.91,1.75-4.62,2.26l-0.26,0.07
			c-1.63,0.46-3.32,0.69-5.09,0.69c-0.88,0-1.72-0.05-2.54-0.14c-1.69-0.19-3.23-0.59-4.64-1.19c-0.29-0.12-0.58-0.26-0.86-0.39
			c-1.57-0.77-2.93-1.77-4.1-2.98c-0.11-0.11-0.22-0.23-0.32-0.35c-1.02-1.14-1.87-2.43-2.53-3.87c-0.27-0.59-0.51-1.2-0.72-1.84
			c-0.38-1.16-0.67-2.38-0.85-3.67c-0.17-1.16-0.25-2.37-0.25-3.64C256.04,115.98,256.13,114.82,256.31,113.69L256.31,113.69z
			 M272.06,105.02c-1.1,0.06-2.11,0.29-3.04,0.68c-1.09,0.46-2.02,1.11-2.79,1.93c-0.78,0.82-1.4,1.78-1.86,2.89
			c-0.38,0.91-0.62,1.88-0.72,2.91c-0.02,0.22-0.04,0.45-0.04,0.68h6.45h7.08h4.15c-0.09-1.18-0.34-2.31-0.75-3.4l-0.02-0.05
			c-0.42-1.11-1-2.07-1.73-2.89c-0.38-0.42-0.79-0.8-1.25-1.14c-0.43-0.32-0.9-0.6-1.41-0.85c-1.04-0.51-2.2-0.77-3.49-0.77
			C272.45,105.01,272.26,105.01,272.06,105.02z"/>
	</g>
</g>
</svg>
